<?xml version="1.0" standalone="no"?>
<!DOCTYPE svg PUBLIC "-//W3C//DTD SVG 20010904//EN"
 "http://www.w3.org/TR/2001/REC-SVG-20010904/DTD/svg10.dtd">
<svg version="1.0" xmlns="http://www.w3.org/2000/svg"
 width="300.000000pt" height="300.000000pt" viewBox="0 0 300.000000 300.000000"
 preserveAspectRatio="xMidYMid meet">

<g transform="translate(0.000000,300.000000) scale(0.100000,-0.100000)"
fill="#55ffcc" stroke="none">
<path d="M1358 2990 c-594 -57 -1100 -464 -1282 -1031 -52 -165 -69 -277 -69
-459 0 -175 16 -290 64 -445 133 -431 465 -787 887 -950 457 -176 969 -119
1377 153 134 89 318 273 407 407 296 443 336 1001 108 1481 -205 429 -629 751
-1090 828 -122 20 -291 27 -402 16z m297 -181 c562 -69 1018 -485 1136 -1039
29 -137 32 -381 6 -512 -67 -333 -243 -615 -511 -814 -499 -373 -1184 -345
-1655 66 -428 374 -567 989 -343 1509 233 538 790 860 1367 790z"/>
<path d="M1285 2734 c-348 -63 -653 -266 -843 -563 -62 -97 -123 -238 -154
-359 -40 -155 -49 -358 -23 -512 102 -610 619 -1050 1235 -1050 548 0 1022
346 1193 871 82 252 73 579 -23 827 -160 414 -523 710 -964 787 -110 19 -313
18 -421 -1z m417 -82 c10 -10 9 -55 -5 -217 -9 -113 -19 -210 -22 -215 -9 -14
-322 -13 -331 1 -8 14 -41 418 -34 429 9 15 54 18 217 16 113 -1 166 -5 175
-14z m-622 -144 c7 -40 20 -118 30 -173 9 -55 15 -106 13 -112 -4 -10 -64 -13
-252 -13 -243 0 -271 3 -271 33 0 17 135 148 204 200 76 56 221 136 248 137
12 0 19 -16 28 -72z m968 27 c106 -55 185 -113 280 -207 117 -116 115 -118
-193 -118 -155 0 -245 4 -252 11 -7 7 -2 59 18 172 32 181 34 187 50 187 6 0
50 -20 97 -45z m326 -401 c21 -21 20 -67 -2 -86 -9 -8 -96 -65 -193 -127
l-176 -111 -482 0 c-459 0 -484 1 -519 20 -20 10 -109 66 -197 122 -138 89
-160 107 -163 132 -2 16 4 36 14 47 17 18 43 19 860 19 753 0 844 -2 858 -16z
m-1698 -195 c54 -28 144 -75 199 -104 l100 -54 51 -88 c28 -48 139 -241 246
-428 l196 -340 -9 -205 c-5 -113 -12 -215 -14 -228 -7 -31 -48 -49 -79 -34
-16 7 -74 98 -181 284 -87 150 -216 373 -286 496 -71 122 -187 323 -259 446
-71 124 -130 234 -130 245 0 18 42 61 60 61 4 0 52 -23 106 -51z m1772 5 c36
-25 27 -61 -51 -194 -40 -69 -225 -390 -412 -714 -194 -337 -349 -595 -363
-604 -28 -19 -68 -4 -81 30 -5 13 -11 118 -15 233 l-7 210 127 220 c70 121
181 312 246 425 l118 205 193 102 c105 56 199 102 207 103 9 0 26 -7 38 -16z
m-1966 -106 c179 -307 208 -362 196 -374 -7 -7 -84 -38 -171 -70 -132 -48
-160 -55 -168 -43 -14 23 -10 256 6 349 16 90 41 177 58 198 19 24 37 11 79
-60z m2115 60 c37 -46 73 -248 73 -403 0 -128 -4 -155 -24 -155 -22 1 -330
118 -333 127 -3 8 60 120 208 376 39 66 57 79 76 55z m-1242 -265 c9 -21 16
-23 145 -25 l135 -3 17 28 c23 35 70 37 92 5 9 -12 16 -28 16 -35 0 -21 -38
-53 -62 -53 -18 0 -36 -23 -89 -112 -64 -108 -66 -112 -52 -140 13 -25 13 -32
-1 -53 -23 -35 -70 -34 -93 1 -15 24 -16 29 -1 54 15 26 13 29 -54 140 -64
106 -71 114 -100 114 -24 1 -36 8 -47 27 -13 24 -13 29 3 53 22 35 75 34 91
-1z m-475 -484 c45 -78 78 -145 73 -149 -38 -37 -348 -240 -358 -236 -24 9
-84 98 -140 209 -30 60 -55 115 -55 123 0 16 349 192 381 193 11 1 44 -46 99
-140z m1523 36 c143 -68 187 -93 187 -107 0 -51 -179 -345 -204 -335 -17 7
-319 217 -338 235 -16 16 -13 24 50 132 85 146 101 171 110 167 4 -2 91 -43
195 -92z m-1204 -590 c81 -140 121 -220 117 -231 -5 -14 -15 -15 -56 -10 -145
19 -476 180 -468 227 3 19 252 229 272 229 6 0 67 -97 135 -215z m884 104 c69
-57 126 -111 126 -120 2 -32 -190 -140 -338 -190 -113 -39 -178 -47 -187 -25
-10 25 236 448 257 443 9 -2 73 -51 142 -108z"/>
</g>
</svg>
